<svg xmlns="http://www.w3.org/2000/svg" width="24.089" height="17.398" viewBox="0 0 24.089 17.398">
  <g id="Group_4594" data-name="Group 4594" transform="translate(-325)">
    <path id="Path_1509" data-name="Path 1509" d="M27.585,12.375H5.5a1.073,1.073,0,0,1-1-1.125h0a1.073,1.073,0,0,1,1-1.125H27.585a1.073,1.073,0,0,1,1,1.125h0A1.073,1.073,0,0,1,27.585,12.375Z" transform="translate(320.5 -10.125)" fill="#1c3c34"/>
    <path id="Path_1510" data-name="Path 1510" d="M27.585,19.125H5.5A1.073,1.073,0,0,1,4.5,18h0a1.073,1.073,0,0,1,1-1.125H27.585a1.073,1.073,0,0,1,1,1.125h0A1.073,1.073,0,0,1,27.585,19.125Z" transform="translate(320.5 -9.301)" fill="#1c3c34"/>
    <path id="Path_1511" data-name="Path 1511" d="M27.585,25.875H5.5a1.073,1.073,0,0,1-1-1.125h0a1.073,1.073,0,0,1,1-1.125H27.585a1.073,1.073,0,0,1,1,1.125h0A1.073,1.073,0,0,1,27.585,25.875Z" transform="translate(320.5 -8.477)" fill="#1c3c34"/>
  </g>
</svg>
