<svg xmlns="http://www.w3.org/2000/svg" xmlns:xlink="http://www.w3.org/1999/xlink" width="26.552" height="26.571" viewBox="0 0 26.552 26.571">
  <defs>
    <clipPath id="clip-path">
      <path id="Path_83" data-name="Path 83" d="M1088.154,6053.35h-5.494v-8.635c0-2.058-.042-4.7-2.862-4.7-2.862,0-3.3,2.236-3.3,4.549v8.784H1071v-17.739h5.28v2.42h.078a5.782,5.782,0,0,1,5.208-2.865c5.571,0,6.595,3.671,6.595,8.44v9.744Zm-23.359-20.16a3.206,3.206,0,1,1,3.187-3.219A3.215,3.215,0,0,1,1064.8,6033.19Zm2.756,20.16h-5.506v-17.739h5.506Z" transform="translate(-1061.608 -6026.779)" fill="#1c3c34" clip-rule="evenodd"/>
    </clipPath>
    <clipPath id="clip-path-2">
      <rect id="Rectangle_53" data-name="Rectangle 53" width="931.334" height="658.731" fill="#1c3c34"/>
    </clipPath>
  </defs>
  <g id="Group_82" data-name="Group 82" clip-path="url(#clip-path)">
    <g id="Group_81" data-name="Group 81" transform="translate(-773.163 -364.239)">
      <g id="Group_80" data-name="Group 80" clip-path="url(#clip-path-2)">
        <rect id="Rectangle_52" data-name="Rectangle 52" width="37.613" height="37.642" transform="translate(767.632 358.704)" fill="#1c3c34"/>
      </g>
    </g>
  </g>
</svg>
